<svg width="28" height="28" fill="none" xmlns="http://www.w3.org/2000/svg"><path d="M23.854 0c1.65 0 2.98 1.395 2.98 3.07v18.65c0 .094 0 .14-.046.233l-3.346 5.582c-.184.279-.459.465-.78.465-.32 0-.595-.186-.779-.465l-3.345-5.582c-.046-.046-.046-.139-.046-.232V3.07c0-1.675 1.375-3.07 3.025-3.07h2.337ZM9.646.093c1.237 0 2.291 1.023 2.291 2.326v23.209c0 1.302-1.008 2.325-2.291 2.325H3.458c-1.283 0-2.291-1.023-2.291-2.325V2.418c0-1.302 1.008-2.325 2.291-2.325h6.188Zm16.27 5.86h-6.508v15.628l3.255 5.489 3.254-5.489V5.953Zm-16.27-4.93H3.458c-.779 0-1.375.605-1.375 1.396v1.628h3.942c.275 0 .458.186.458.465s-.183.465-.458.465H2.083v3.628h1.559c.275 0 .458.186.458.465s-.183.465-.458.465H2.083v3.628h3.942c.275 0 .458.186.458.465s-.183.465-.458.465H2.083v3.628h1.559c.275 0 .458.186.458.465 0 .28-.183.465-.458.465H2.083v3.628h3.942c.275 0 .458.186.458.465 0 .28-.183.465-.458.465H2.083v2.372c0 .791.596 1.396 1.375 1.396h6.188c.779 0 1.375-.605 1.375-1.396V2.42c0-.791-.596-1.396-1.375-1.396ZM23.854.93h-2.337c-1.146 0-2.109.977-2.109 2.14v1.953h6.509V3.07c0-1.163-.917-2.14-2.063-2.14Z" fill="#fff"/></svg>