<svg width="28" height="28" fill="none" xmlns="http://www.w3.org/2000/svg"><path d="M21.38 0c.235 0 .423.14.47.373a5.37 5.37 0 0 0 4.466 4.434c.188 0 .376.233.517.466v4.294c0 4.013-1.269 7.933-3.572 11.246a20.035 20.035 0 0 1-9.073 7.14C14.094 28 14.047 28 14 28c-.094 0-.141-.047-.188-.047a20.034 20.034 0 0 1-9.073-7.14A19.284 19.284 0 0 1 1.167 9.567V5.273c0-.233.14-.42.376-.466C3.799 4.48 5.633 2.613 6.009.373A.505.505 0 0 1 6.479 0H21.38Zm-.423.887H6.855c-.517 2.38-2.398 4.2-4.795 4.76V9.52c0 3.873 1.175 7.56 3.384 10.733 2.116 3.034 5.03 5.32 8.462 6.72 3.432-1.353 6.346-3.686 8.461-6.72 2.21-3.173 3.385-6.86 3.385-10.733V5.647c-2.397-.56-4.278-2.38-4.795-4.76Zm-2.914 8.866c.188-.186.517-.14.61.094.189.186.142.513-.046.653l-6.44 5.18a.506.506 0 0 1-.282.093h-.047c-.141 0-.235-.093-.33-.186l-2.444-3.36c-.14-.234-.094-.514.094-.654.235-.14.517-.093.658.094l2.163 2.94 6.064-4.854Z" fill="#fff"/></svg>